.
..............................Site Info...........................

 -   http://www.scenetime.com  *_*    

Scenetime .Always on time . friendly online private torrent community ..

     We care to share . Join us on  http://www.scenetime.com 

    Be the first to get new release at  http://www.scenetime.com

        Seed back for speed


...................................NFO:.................................................[img]http://img1.bdbphotos.com/images/orig/y/t/yti838lw2etgtel.jpg[/img]
 
http://www.imdb.com/title/tt1584941/


description:

cant find inof on it.




Source-TDP Thanks




file info
Format                                   : AVI
Format/Info                              : Audio Video Interleave
File size                                : 698 MiB
Duration                                 : 1h 32mn
Overall bit rate                         : 1 054 Kbps

Video
ID                                       : 0
Format                                   : MPEG-4 Visual
Format profile                           : Advanced Simple@L5
Format settings, BVOP                    : 1
Format settings, QPel                    : No
Format settings, GMC                     : No warppoints
Format settings, Matrix                  : Default (H.263)
Muxing mode                              : Packed bitstream
Codec ID                                 : XVID
Codec ID/Hint                            : XviD
Duration                                 : 1h 32mn
Bit rate                                 : 662 Kbps
Width                                    : 720 pixels
Height                                   : 304 pixels
Display aspect ratio                     : 2.35:1
Frame rate                               : 25.000 fps
Color space                              : YUV
Chroma subsampling                       : 4:2:0
Bit depth                                : 8 bits
Scan type                                : Progressive
Compression mode                         : Lossy
Bits/(Pixel*Frame)                       : 0.121
Stream size                              : 438 MiB (63%)
Writing library                          : XviD 1.2.1 (UTC 2008-12-04)

Audio
ID                                       : 1
Format                                   : AC-3
Format/Info                              : Audio Coding 3
Mode extension                           : CM (complete main)
Format settings, Endianness              : Big
Codec ID                                 : 2000
Duration                                 : 1h 32mn
Bit rate mode                            : Constant
Bit rate                                 : 384 Kbps
Channel(s)                               : 6 channels
Channel positions                        : Front: L C R, Side: L R, LFE
Sampling rate                            : 48.0 KHz
Bit depth                                : 16 bits
Compression mode                         : Lossy
Stream size                              : 254 MiB (36%)
Alignment                                : Aligned on interleaves
Interleave, duration                     : 64 ms (1.60 video frames)
Interleave, preload duration             : 192 ms
Title                                    : VTS 09 1 T81 3_2ch 448Kbps DELAY 0ms_audio



KEEP IN MIND: The voice wont match there lips as was filmed and made for germany buit the sounds and effects do match





Encoder - BallZac



screenies
[IMG]http://lookpic.com/O/i2/683/iuKiWdcQ.png[/IMG]

[IMG]http://lookpic.com/O/i2/1697/5pxWfPHH.png[/IMG]

[IMG]http://lookpic.com/O/i2/878/ygf07I8a.png[/IMG]



Greetz to CM8 Tragedy BBnRG dopeonarope DarkKnight MrSeeN jiinx UNiQUE and to all those who make this possible ;)
And All the ballwashers out there

[IMG]http://lookpic.com/O/i2/1619/4b6HEK5e.png[/IMG]